<?xml version="1.0" encoding="utf-8"?>
<!-- Generator: Adobe Illustrator 22.0.0, SVG Export Plug-In . SVG Version: 6.00 Build 0)  -->
<svg version="1.1" id="Camada_1" xmlns="http://www.w3.org/2000/svg" xmlns:xlink="http://www.w3.org/1999/xlink" x="0px" y="0px"
	 viewBox="0 0 1024 502.4" style="enable-background:new 0 0 1024 502.4;" xml:space="preserve">
<style type="text/css">
	.st0{fill:#404347;}
	.st1{fill:#5A554E;}
	.st2{fill:#9295A0;}
	.st3{fill:#DBA585;}
	.st4{fill:#3E4148;}
	.st5{fill:#CB4949;}
	.st6{fill:#435468;}
	.st7{fill:#C38855;}
	.st8{fill:#8FB0F3;}
	.st9{fill:#00FFFF;stroke:#808080;stroke-width:1.602;stroke-miterlimit:10;}
</style>
<g>
	<g>
		<g>
			<g>
				<g>
					<g>
						<g>
							<path class="st0" d="M930.9,301.1c2.7-1.9,5.3-5.9,5.3-5.9c7.1-0.1,9.6-1.5,9.6-1.5s4.5,12.1,3.4,14.2
								c-1.1,2.1-6.9,1.7-18.8,3.3c-16.7,2.3-15.2-2.7-14.1-4C917.7,305.4,928.2,303,930.9,301.1z"/>
						</g>
					</g>
				</g>
			</g>
		</g>
	</g>
	<g>
		<g>
			<g>
				<g>
					<g>
						<g>
							<path class="st1" d="M945.7,294.4c0,0-9.2,2.5-9.4,1.6c-0.2-0.9-1.7-6.8-1.7-6.8c1.1-1,11.1-2,11.1-2L945.7,294.4z"/>
						</g>
					</g>
				</g>
			</g>
		</g>
	</g>
	<g>
		<g>
			<g>
				<g>
					<g>
						<g>
							<path class="st0" d="M936.1,295.2c7.1-0.1,9.6-1.5,9.6-1.5s4.5,12.1,3.4,14.2c-1.1,2.1-6.9,1.7-18.8,3.3
								c-3.2,0.4-5.8,0.6-7.8,0.6l-0.7-7.2c3.5-1.2,7.5-2.5,9-3.6C933.6,299.2,936.1,295.2,936.1,295.2z"/>
						</g>
					</g>
				</g>
			</g>
		</g>
	</g>
	<g>
		<g>
			<g>
				<g>
					<g>
						<g>
							<path class="st1" d="M991.3,322.2c0,0-9.2,2.5-9.4,1.6s-1.7-6.8-1.7-6.8c1.1-1,11.1-2,11.1-2L991.3,322.2z"/>
						</g>
					</g>
				</g>
			</g>
		</g>
	</g>
	<g>
		<g>
			<g>
				<g>
					<g>
						<g>
							<path class="st0" d="M976.5,328.8c2.7-1.9,5.3-5.9,5.3-5.9c7-0.1,9.6-1.5,9.6-1.5s4.5,12.1,3.4,14.2
								c-1.1,2.1-6.9,1.7-18.8,3.3c-16.7,2.3-15.2-2.7-14.1-4C963.3,333.2,973.8,330.7,976.5,328.8z"/>
						</g>
					</g>
				</g>
			</g>
		</g>
	</g>
	<g>
		<g>
			<g>
				<g>
					<g>
						<g>
							<g>
								<g>
									<polygon class="st2" points="998,405.4 930,412 929.6,407.8 997.6,401.1 									"/>
								</g>
							</g>
						</g>
					</g>
				</g>
			</g>
			<g>
				<g>
					<g>
						<g>
							<g>
								<g>
									<polygon class="st2" points="1001.1,437.3 933.1,444 932.7,439.8 1000.7,433.1 									"/>
								</g>
							</g>
						</g>
					</g>
				</g>
			</g>
		</g>
		<g>
			<g>
				<g>
					<g>
						<g>
							<g>
								<g>
									<g>
										<polygon class="st2" points="1002.9,437.3 934.9,444 934.5,439.8 1002.5,433.1 										"/>
									</g>
								</g>
							</g>
						</g>
					</g>
				</g>
				<g>
					<g>
						<g>
							<g>
								<g>
									<g>
										<polygon class="st2" points="1006,469.3 938,476 937.6,471.7 1005.6,465.1 										"/>
									</g>
								</g>
							</g>
						</g>
					</g>
				</g>
			</g>
			<g>
				<g>
					<g>
						<g>
							<g>
								<g>
									<g>
										
											<rect x="918.1" y="113.4" transform="matrix(0.9952 -9.776126e-02 9.776126e-02 0.9952 -25.5585 91.4279)" class="st2" width="4.2" height="386.3"/>
									</g>
								</g>
							</g>
						</g>
					</g>
				</g>
				<g>
					<g>
						<g>
							<g>
								<g>
									<g>
										
											<rect x="986.1" y="106.7" transform="matrix(0.9952 -9.775996e-02 9.775996e-02 0.9952 -24.5802 98.0421)" class="st2" width="4.2" height="386.3"/>
									</g>
								</g>
							</g>
						</g>
					</g>
				</g>
				<g>
					<g>
						<g>
							<g>
								<g>
									<g>
										<g>
											<polygon class="st2" points="970.4,117.7 902.4,124.3 902,120.1 970,113.4 											"/>
										</g>
									</g>
								</g>
							</g>
						</g>
					</g>
					<g>
						<g>
							<g>
								<g>
									<g>
										<g>
											<polygon class="st2" points="973.5,149.6 905.5,156.3 905.1,152.1 973.1,145.4 											"/>
										</g>
									</g>
								</g>
							</g>
						</g>
					</g>
					<g>
						<g>
							<g>
								<g>
									<g>
										<g>
											<polygon class="st2" points="976.5,181.6 908.5,188.3 908.1,184 976.1,177.3 											"/>
										</g>
									</g>
								</g>
							</g>
						</g>
					</g>
					<g>
						<g>
							<g>
								<g>
									<g>
										<g>
											<polygon class="st2" points="979.6,213.6 911.6,220.2 911.2,216 979.2,209.3 											"/>
										</g>
									</g>
								</g>
							</g>
						</g>
					</g>
					<g>
						<g>
							<g>
								<g>
									<g>
										<g>
											<polygon class="st2" points="982.7,245.5 914.7,252.2 914.3,248 982.3,241.3 											"/>
										</g>
									</g>
								</g>
							</g>
						</g>
					</g>
					<g>
						<g>
							<g>
								<g>
									<g>
										<g>
											<polygon class="st2" points="985.7,277.5 917.7,284.2 917.3,279.9 985.3,273.3 											"/>
										</g>
									</g>
								</g>
							</g>
						</g>
					</g>
					<g>
						<g>
							<g>
								<g>
									<g>
										<g>
											<polygon class="st2" points="988.8,309.5 920.8,316.1 920.4,311.9 988.4,305.2 											"/>
										</g>
									</g>
								</g>
							</g>
						</g>
					</g>
					<g>
						<g>
							<g>
								<g>
									<g>
										<g>
											<polygon class="st2" points="991.9,341.4 923.9,348.1 923.5,343.9 991.5,337.2 											"/>
										</g>
									</g>
								</g>
							</g>
						</g>
					</g>
					<g>
						<g>
							<g>
								<g>
									<g>
										<g>
											<polygon class="st2" points="994.9,373.4 926.9,380.1 926.5,375.8 994.5,369.2 											"/>
										</g>
									</g>
								</g>
							</g>
						</g>
					</g>
				</g>
				<g>
					<g>
						<g>
							<g>
								<g>
									<g>
										<path class="st3" d="M955.5,36.7c3.7,1.9,8.6,5.5,8.7,12c0.2,6.5-3.1,16.2-6.7,23c-3.6,6.7-14.2,8.1-21.2,5.5
											c-7-2.6-7.7-24.2-1.2-34.9C941.5,31.4,955.5,36.7,955.5,36.7z"/>
									</g>
								</g>
							</g>
						</g>
					</g>
				</g>
				<g>
					<g>
						<g>
							<g>
								<g>
									<g>
										<path class="st3" d="M941.3,76.8c0,0,21.4-16.9,18.9-9.5c-2.5,7.3-3.8,16-3.8,16s-16.2,0-15.4-1.6
											C941.8,80.1,941.3,76.8,941.3,76.8z"/>
									</g>
								</g>
							</g>
						</g>
					</g>
				</g>
				<g>
					<g>
						<g>
							<g>
								<g>
									<g>
										<path class="st4" d="M953.1,35.1c0,0,13.8,3.8,13.3,11.2c-0.5,7.4-2.6,16.1-5.5,19.7c0,0-1.5,2.2-7.1,0.8
											c-5.1-1.2-11.6-7.8-13.7-8.6c-2.2-0.8-2.2-2.1-2.2-2.1l-0.1-0.8l-2.8-1.6c0,0,1.3-1.7-1.8-4.3
											C929.9,46.9,936.3,29.2,953.1,35.1z"/>
									</g>
								</g>
							</g>
						</g>
					</g>
				</g>
				<g>
					<g>
						<g>
							<g>
								<g>
									<path class="st5" d="M976.3,87.1c0.5,0.1,12.4,22.1,11.2,37c-0.1,1.6-2,3.4-3.2,4.2c-0.8,0.6-1.8,0.9-2.8,0.9l-0.7,0l0,0
										l-12.7,0.4C968,129.7,958.5,98.8,976.3,87.1z"/>
								</g>
							</g>
						</g>
					</g>
				</g>
				<g>
					<g>
						<g>
							<g>
								<g>
									<g>
										<path class="st3" d="M942.7,52.5c1.2,3.8-1.8,8.9-3.5,8.4c-1.7-0.4-1.9-4.3-1.1-7.5C938.4,52.2,941.5,48.7,942.7,52.5z"/>
									</g>
								</g>
							</g>
						</g>
					</g>
				</g>
				<g>
					<g>
						<g>
							<g>
								<g>
									<g>
										<path class="st0" d="M914.8,198.3c1.8-9,8.5-34.1,8.5-34.1c4.9-8,50-3.4,50-3.4c-3.6,25.2-17.2,25.6-23.2,39.2
											c-5.9,13.6-6.9,13.1-14.5,29.6c-5.1,11.1,14.4,61.1,14.4,61.1l-18.4,3c-2.1-8.7-22.3-56.7-21.9-61.6
											C910.2,227,913.3,206.2,914.8,198.3z"/>
									</g>
								</g>
							</g>
						</g>
					</g>
				</g>
				<g>
					<g>
						<g>
							<g>
								<g>
									<g>
										<path class="st0" d="M977.6,188.8c0.9,13,2.6,27.2,3.9,40.7c1.5,15.1,5.7,39.5,5.9,47.6c0.2,8.1,6.9,43.4,6.9,43.4
											l-17.2,2c0,0-11.2-62.4-13.8-68.8c-2.6-6.4-15.7-51.8-16.2-56.9c-0.4-5.1,26-36,26-36S976.7,174.8,977.6,188.8z"/>
									</g>
								</g>
							</g>
						</g>
					</g>
				</g>
				<g>
					<g>
						<g>
							<g>
								<g>
									<path class="st5" d="M977.3,185.2c0,0-2.2,8.8-59.6,0.5c-1.5-0.2,5.7-34.4,5.3-37.2c-0.3-1.9-0.2-16.2-0.1-25.1l-1.6-9
										c-0.1-0.1-0.3-0.2-0.5-0.3c0,0,0,0,0,0c-2.7-1.9-8.2-4.8-11.1-6.2c0.4-2.1,0.6-3.8,0.7-4.8c0.2-2,0.7-3.7,1.3-5.3
										c1.9-4.6,5.5-7.3,7.7-8.7c1.2-0.7,2.1-1,2.1-1c1.1-0.5,2.3-1,3.3-1.4h0c1.9-0.8,3.8-1.5,5.7-2.2c5.6-2,10.6-3.6,10.6-3.6
										H956c0,0,11.2,2.3,17.9,5c0.9,0.4,1.7,0.8,2.4,1.3l-2,42.4c0,0,0,0,0,0c0,0,0,0,0,0.1c-0.9,6-1.8,13-2.2,17.9
										c-0.1,2,2.1,12.8,3.3,22.8L977.3,185.2z"/>
								</g>
							</g>
						</g>
					</g>
				</g>
				<g>
					<polygon class="st6" points="846.3,36.3 865.8,40.6 870.3,19.7 850.8,15.4 					"/>
				</g>
				<g>
					<polygon class="st7" points="844.3,40.9 865.7,45.6 867.2,39 845.7,34.3 					"/>
				</g>
				<g>
					<polygon class="st7" points="852.2,70 858.9,39.1 853.2,37.8 846.5,68.7 					"/>
				</g>
				<g>
					<path class="st8" d="M867.9,30.7c0,0-3.7-6.3-9.5-8.1s-8.7-2.3-8.7-2.3l1.1-4.9l19.5,4.3L867.9,30.7z"/>
				</g>
				<g>
					<g>
						<g>
							<g>
								<g>
									<g>
										<path class="st3" d="M846.4,52.4c0.1-1.4,1.5-2.9,1.5-2.9c-0.1-0.7,0.1-1.5,0.9-2.3c0.5-0.5,3.1-0.2,3.3-0.2
											c0.7,0.1,1.8-0.1,3,0.3c0.1,0,0.3,0.1,0.4,0.1c1.4,0.6,8,9.2,8,9.2l-1.2,3.4l-1.7,4.3c0,0-7.1-1.6-8.7-2.1
											c-1.6-0.5-2.7-1.4-3.3-1.7c-0.1-0.1-0.4-0.2-0.6-0.3c-0.8-0.4-1.9-0.8-1.9-0.8c-0.6-0.3-1.5-1.4-1.5-1.4
											c-0.5-1,0.7-2.6,0.7-2.6C845,53.7,846.4,52.4,846.4,52.4z"/>
									</g>
								</g>
							</g>
						</g>
					</g>
				</g>
				<g>
					<g>
						<g>
							<g>
								<g>
									<g>
										<path class="st5" d="M926.8,106c-1.8,5.2-4.4,9-6,7.9h0c-2.6-1.7-4.6-2.9-11.1-6.2c-13.7-6.9-30.6-19.5-33.8-21.3
											c-4.9-2.7-20.1-21.5-20.5-22.1c0,0,0,0,0,0c0.8-2.9,8.2-8.7,8.2-8.7s5.8,5.5,12.3,11.5c4.1,3.7,8.4,7.6,11.7,10.4
											c1,0.8,1.8,1.5,2.6,2.1c0.9,0.7,1.7,1.2,2.3,1.5c3.8,2.1,20.6,4.1,29.1,5.1c1.4,0.2,2.5,0.3,3.4,0.4h0
											c1,0.1,1.5,0.2,1.5,0.2C929.9,91.4,929,99.8,926.8,106z"/>
									</g>
								</g>
							</g>
						</g>
					</g>
				</g>
				<g>
					<path class="st8" d="M926.8,106c-4,0.4-8.5-1-11.8-4.8c-1.2-1.4-2.3-2.6-3.3-3.6c-7.7-7.4-11.8-4.7-19.7-9.2
						c-9-5.1-4.5-11-4.5-11c1,0.8,1.8,1.5,2.6,2.1c0.9,0.7,1.7,1.2,2.3,1.5c3.8,2.1,20.6,4.1,29.1,5.1c1.4,0.2,2.5,0.3,3.4,0.4h0
						c1.9-0.8,3.8-1.5,5.7-2.2C941.5,96.2,935.2,105.1,926.8,106z"/>
				</g>
				<g>
					<path class="st8" d="M875.8,67.1c-1.7,1.1-4.1,1.3-6.2,0.2c-6.7-3.6-9.4,1.1-14.3-2.9c0,0,0,0,0,0c0.8-2.9,8.2-8.7,8.2-8.7
						S869.4,61.2,875.8,67.1z"/>
				</g>
			</g>
		</g>
	</g>
</g>
<g>
	<path class="st9" d="M92.8,76.9c4.2-0.8,7.1-2.4,8.9-4.8h-7.3c-3.5,0-6.4-1.2-8.8-3.7c-2.4-2.5-3.6-5.4-3.6-8.9
		c0.1-2.3,0.6-4.4,1.7-6.2c1.1-1.9,2.5-3.3,4.4-4.4c1.9-1.1,3.9-1.7,6.1-1.7h23.4c8.6,0,12.9,4.8,12.9,14.4c0,2.8-0.3,5.6-0.8,8.6
		c-0.6,3.7-1.9,7.5-4.1,11.5c-2.4,4.3-5.5,8.1-9.2,11.2c-3.7,3.1-8,5.5-12.8,7.1s-10.1,2.4-15.9,2.4c-3.3,0-7-0.3-11-1
		c-5.5-1-10.5-2.6-15-5c-4.5-2.4-8.4-5.4-11.7-9.2c-3.3-3.7-6-8-8-12.8c-2.3-5.6-3.5-11.4-3.5-17.2c0-7.6,1.9-14.9,5.8-21.7
		c3.8-6.8,9.2-12.5,16.3-16.9c7.6-4.8,16.3-7.2,26.1-7.2c1.3,0,3.1,0.1,5.4,0.2c4.2,0.4,8.3,1.2,12.3,2.4c3.9,1.3,7.5,2.9,10.9,5
		c6.9,4.6,10.3,9.5,10.3,14.7c0,3.1-1.4,5.9-4.3,8.4c-2,1.8-4.4,2.7-7.3,2.7c-2.1,0-4.3-0.5-6.7-1.5h-0.1l-5.1-2.7
		c-1.1-0.6-1.9-1.1-2.5-1.3c-4.9-2.3-9.5-3.5-13.8-3.5c-3.4,0-6.5,0.7-9.2,2.1c-2.7,1.4-5,3.4-6.8,6.1c-1.8,2.7-3,5.8-3.6,9.2
		c-0.2,1.1-0.4,2.2-0.4,3.3c0,1.4,0.1,2.7,0.4,4.1c0.7,3.5,2,6.6,3.8,9.1c1.8,2.5,4.1,4.5,6.9,5.8c2.8,1.4,5.9,2.1,9.4,2.1
		C88.7,77.7,90.8,77.4,92.8,76.9z"/>
	<path class="st9" d="M143.6,82.2c-1.8-2.5-3.2-5.2-4.5-8.1c-1.2-2.8-2.1-5.7-2.7-8.6c-0.6-2.9-0.9-5.8-0.9-8.7
		c0-2.9,0.3-5.8,0.9-8.7c0.6-2.9,1.5-5.8,2.8-8.7c1.2-2.9,2.7-5.6,4.4-8.1c2.8-4.2,6.3-7.8,10.3-10.8c4-3,8.4-5.3,13.2-7
		c4.8-1.6,9.7-2.4,14.7-2.4c3.8,0,7.5,0.5,11.2,1.4c3.7,0.9,7.2,2.3,10.6,4c3.4,1.8,6.4,3.9,9.2,6.4c2.8,2.5,5.2,5.3,7.3,8.4
		c5.4,7.9,8.1,16.4,8.1,25.4c0,4.5-0.7,8.9-2.1,13.2c-1.4,4.3-3.4,8.4-6,12.2c-2.1,3.1-4.6,5.9-7.4,8.4c-2.9,2.6-5.9,4.7-9.1,6.4
		c-3.2,1.7-6.6,3-10.4,4c-3.8,1-7.6,1.5-11.3,1.5c-5,0-10-0.8-14.7-2.4c-4.8-1.6-9.2-3.9-13.2-7C149.8,90,146.4,86.4,143.6,82.2z
		 M163.2,56.8c0,3.9,0.8,7.5,2.5,10.7c1.7,3.2,3.9,5.7,6.7,7.5c2.8,1.8,5.9,2.7,9.2,2.7c1.2,0,2.4-0.1,3.7-0.4
		c2.2-0.5,4.3-1.3,6.1-2.5c1.8-1.2,3.4-2.7,4.8-4.5c1.4-1.8,2.5-3.9,3.2-6.1c0.7-2.3,1.1-4.7,1.1-7.3c0-1.2-0.1-2.5-0.4-3.9
		c-0.6-3.5-1.7-6.4-3.4-9c-1.7-2.5-3.9-4.5-6.5-5.9s-5.4-2.1-8.5-2.1c-3.4,0-6.6,0.9-9.4,2.7c-2.8,1.8-5.1,4.3-6.7,7.5
		S163.2,52.9,163.2,56.8z"/>
	<path class="st9" d="M240.1,97.1c-3.1-1.9-5.2-3.8-6.3-5.7c-1.1-1.9-1.7-4.3-1.7-7.2c0.1-2.7,0.8-4.9,2-6.8
		c2.3-3.4,5.2-5.1,8.6-5.1c1.4,0,2.8,0.2,4.3,0.5l5.3,1.4l4.8,1.3l3.5,0.8l1.3,0.4c0.9,0.1,1.6,0.2,2.1,0.4c1.6,0.3,3,0.4,4.3,0.4
		c1.3,0,2.4-0.2,3.4-0.5c1.4-0.4,2.4-0.9,2.9-1.3c0.7-0.6,1.1-1.3,1.1-2.1c0-0.9-0.4-1.6-1.2-2.1c-0.2-0.1-0.5-0.2-0.9-0.4l-2.3-0.8
		l-1.5-0.5l-6.4-1.6l-1.2-0.2l-8-2.3c-4.4-1.2-8.1-2.7-11.1-4.7c-3.3-2.1-5.8-4.9-7.6-8.3c-1.8-3.4-2.7-7.1-2.7-11.1
		c0-3.2,0.6-6.4,1.8-9.6c1.2-3.2,3-6.1,5.3-8.7c2.6-2.9,6-5.4,10.1-7.4c4.1-2,8.7-3.3,13.9-3.9c2.1-0.2,4.2-0.4,6.3-0.4
		c4.5,0,8.8,0.6,12.9,1.8c4.6,1.4,8,3,10.2,4.7s3.7,3.9,4.5,6.5c0.4,1.6,0.6,3,0.6,4.3c0,2.5-0.6,4.7-1.9,6.6
		c-1.2,1.8-2.5,3-4.1,3.9c-1.5,0.8-3.3,1.3-5.4,1.3c-2.2,0-4.7-0.4-7.5-1.2l-0.9-0.4l-3.5-1.1l-1.5-0.4l-3.4-0.8l-1.7-0.4l-1.2-0.2
		c-0.2,0-0.5-0.1-0.7-0.1c-0.2,0-0.5,0-0.9,0c-2.2,0-3.8,0.3-4.6,1c-0.7,0.6-1.1,1.3-1.1,2.1c0,0.5,0.2,1,0.7,1.3
		c0.4,0.3,1.1,0.6,1.9,0.8l2.3,0.7l0.8,0.2l2.4,0.6l4,1l8,2.3c4.2,1.2,7.7,2.6,10.5,4.1c2.2,1.1,4.1,2.5,5.8,4
		c1.7,1.6,3.1,3.3,4.3,5.3c1.2,2,2,4,2.6,6c0.6,2.1,0.8,4.2,0.8,6.5c0,6.5-2.3,12.4-6.8,17.9c-6.9,8.5-17.2,12.7-30.7,12.7
		c-1,0-2.8-0.1-5.2-0.2C251.8,101.6,244.7,99.9,240.1,97.1z"/>
	<path class="st9" d="M304.4,24.5c0.1-2.3,0.6-4.3,1.7-6.2c1.1-1.9,2.5-3.3,4.3-4.4c1.8-1.1,3.8-1.6,5.9-1.6h47.3
		c2.2,0,4.3,0.6,6.1,1.7c1.8,1.1,3.2,2.7,4.3,4.6c1.1,1.9,1.6,4,1.6,6.3c-0.1,3.4-1.3,6.2-3.7,8.6c-2.4,2.4-5.1,3.5-8.3,3.5h-10.2
		v51.2c0,2.6-0.6,4.9-1.9,7c-1.2,2.1-2.9,3.8-5,5s-4.4,1.9-6.9,1.9c-2.6,0-4.9-0.6-7.1-1.9c-2.1-1.3-3.8-3-5-5.2
		c-1.2-2.2-1.9-4.6-1.9-7.1V36.9h-9.6c-3.3,0-6-1.2-8.4-3.6C305.5,30.8,304.4,27.9,304.4,24.5z"/>
	<path class="st9" d="M385.1,82.2c-1.8-2.5-3.2-5.2-4.5-8.1c-1.2-2.8-2.1-5.7-2.7-8.6c-0.6-2.9-0.9-5.8-0.9-8.7
		c0-2.9,0.3-5.8,0.9-8.7c0.6-2.9,1.5-5.8,2.8-8.7c1.2-2.9,2.7-5.6,4.4-8.1c2.8-4.2,6.3-7.8,10.3-10.8c4-3,8.4-5.3,13.2-7
		c4.8-1.6,9.7-2.4,14.7-2.4c3.8,0,7.5,0.5,11.2,1.4c3.7,0.9,7.2,2.3,10.6,4c3.4,1.8,6.4,3.9,9.2,6.4s5.2,5.3,7.3,8.4
		c5.4,7.9,8.1,16.4,8.1,25.4c0,4.5-0.7,8.9-2.1,13.2c-1.4,4.3-3.4,8.4-6,12.2c-2.1,3.1-4.6,5.9-7.4,8.4c-2.9,2.6-5.9,4.7-9.1,6.4
		c-3.2,1.7-6.6,3-10.4,4c-3.8,1-7.6,1.5-11.3,1.5c-5,0-10-0.8-14.7-2.4c-4.8-1.6-9.2-3.9-13.2-7C391.3,90,387.9,86.4,385.1,82.2z
		 M404.7,56.8c0,3.9,0.8,7.5,2.5,10.7c1.7,3.2,3.9,5.7,6.7,7.5c2.8,1.8,5.9,2.7,9.2,2.7c1.2,0,2.4-0.1,3.7-0.4
		c2.2-0.5,4.3-1.3,6.1-2.5c1.8-1.2,3.4-2.7,4.8-4.5c1.4-1.8,2.5-3.9,3.2-6.1c0.7-2.3,1.1-4.7,1.1-7.3c0-1.2-0.1-2.5-0.4-3.9
		c-0.6-3.5-1.7-6.4-3.4-9s-3.9-4.5-6.5-5.9c-2.6-1.4-5.4-2.1-8.5-2.1c-3.4,0-6.6,0.9-9.4,2.7c-2.8,1.8-5.1,4.3-6.7,7.5
		S404.7,52.9,404.7,56.8z"/>
	<path class="st9" d="M510.9,101.6c-5.8-1-11-2.6-15.4-4.8c-4.4-2.2-8.1-5.1-11-8.5c-2.9-3.4-5.1-7.4-6.6-12
		c-1.5-4.6-2.3-9.6-2.3-15V25.8c0-4,1.3-7.4,4-10.3c2.8-2.8,6.1-4.2,10-4.2c3.8,0,7,1.3,9.7,4c2.8,2.8,4.2,6.3,4.2,10.3v36.7
		c0,2.8,0.5,5.2,1.4,7.4c0.9,2.1,2.3,3.9,4.1,5.2c1.8,1.4,4,2.3,6.6,2.8c1.3,0.2,2.3,0.2,3,0.2c0.6,0,1.6-0.1,3-0.2
		c2.6-0.5,4.8-1.4,6.6-2.7c1.8-1.3,3.1-3.1,4.1-5.2c0.9-2.1,1.4-4.6,1.4-7.4V25.6c0-4,1.4-7.4,4.3-10.3c2.6-2.7,5.9-4,9.7-4
		c3.9,0,7.2,1.4,9.9,4.2c1.3,1.2,2.3,2.8,3,4.6s1.1,3.7,1.1,5.6v35.6c0,5.5-0.7,10.5-2.2,15c-1.5,4.5-3.7,8.5-6.7,11.9
		c-3,3.4-6.7,6.2-11.1,8.5c-4.4,2.3-9.6,3.9-15.4,4.8c-2,0.4-4.5,0.6-7.6,0.6C515.6,102.2,513,102,510.9,101.6z"/>
	<path class="st9" d="M603.7,86.8V26.7c0-2.5,0.6-4.9,1.9-7.2c1.2-2.2,3-4,5.1-5.3c2.2-1.3,4.5-1.9,7.1-1.9h19.1
		c6.7,0,12.9,0.7,18.3,2.2c5.5,1.5,10.3,3.7,14.4,6.6s7.5,6.4,10.2,10.6c2.7,4.2,4.7,9,6,14.5c0.8,3.5,1.2,7.2,1.2,11
		c-0.1,8.3-2.1,15.8-6.1,22.5c-3.9,6.7-9.4,12-16.4,15.8c-7,3.8-14.8,5.7-23.5,5.7h-23.4c-3.8,0-7.1-1.4-9.8-4.3
		C605,94.2,603.7,90.8,603.7,86.8z M631.6,76.7h6.7c4.1,0,7.8-0.8,11-2.5c3.2-1.6,5.6-3.9,7.4-6.9c1.8-2.9,2.7-6.3,2.7-9.9
		c0-1.5-0.2-3.1-0.6-5c-0.9-4.6-3.3-8.3-7.1-11.1c-3.8-2.8-8.6-4.2-14.4-4.2h-5.6V76.7z"/>
	<path class="st9" d="M691.1,101.4c-2.7-1.2-4.8-2.9-6.3-5c-1.5-2.1-2.2-4.6-2.2-7.4c0-2.1,0.5-4.6,1.6-7.6L705,27.2
		c1.9-5,4.7-8.8,8.4-11.5c3.7-2.7,7.9-4,12.6-4c4.8,0,9,1.3,12.7,4c3.7,2.7,6.5,6.5,8.4,11.5l20.8,54.3c1.1,3.1,1.6,5.7,1.6,7.6
		c0,2.8-0.7,5.2-2.2,7.4c-1.5,2.1-3.6,3.8-6.3,5c-1.9,0.8-3.8,1.3-5.8,1.3c-2.8,0-5.4-0.9-7.8-2.7c-2.4-1.8-4.1-4.3-5.3-7.5
		l-1.4-4.1h-29.3l-1.5,4.1c-1.1,3.1-2.8,5.6-5.2,7.4c-2.4,1.8-5,2.7-7.9,2.7C694.9,102.6,693,102.2,691.1,101.4z M719.5,63.8h13.1
		L726,40.1L719.5,63.8z"/>
	<path class="st9" d="M777.1,97.1c-3.1-1.9-5.2-3.8-6.3-5.7c-1.1-1.9-1.7-4.3-1.7-7.2c0.1-2.7,0.8-4.9,2-6.8
		c2.3-3.4,5.2-5.1,8.6-5.1c1.4,0,2.8,0.2,4.3,0.5l5.3,1.4l4.8,1.3l3.5,0.8l1.3,0.4c0.9,0.1,1.6,0.2,2.1,0.4c1.6,0.3,3,0.4,4.3,0.4
		c1.3,0,2.4-0.2,3.4-0.5c1.4-0.4,2.4-0.9,2.9-1.3c0.7-0.6,1.1-1.3,1.1-2.1c0-0.9-0.4-1.6-1.2-2.1c-0.2-0.1-0.5-0.2-0.9-0.4l-2.3-0.8
		l-1.5-0.5l-6.4-1.6l-1.2-0.2l-8-2.3c-4.4-1.2-8.1-2.7-11.1-4.7c-3.3-2.1-5.8-4.9-7.6-8.3c-1.8-3.4-2.7-7.1-2.7-11.1
		c0-3.2,0.6-6.4,1.8-9.6c1.2-3.2,3-6.1,5.4-8.7c2.6-2.9,6-5.4,10.1-7.4c4.1-2,8.7-3.3,13.9-3.9c2-0.2,4.1-0.4,6.3-0.4
		c4.5,0,8.8,0.6,12.9,1.8c4.6,1.4,8,3,10.2,4.7c2.2,1.7,3.7,3.9,4.5,6.5c0.4,1.6,0.6,3,0.6,4.3c0,2.5-0.6,4.7-1.9,6.6
		c-1.2,1.8-2.5,3-4,3.9c-1.5,0.8-3.3,1.3-5.4,1.3c-2.2,0-4.7-0.4-7.5-1.2l-0.9-0.4l-3.5-1.1l-1.5-0.4l-3.4-0.8l-1.7-0.4l-1.2-0.2
		c-0.2,0-0.5-0.1-0.7-0.1c-0.2,0-0.5,0-0.9,0c-2.2,0-3.8,0.3-4.6,1c-0.7,0.6-1.1,1.3-1.1,2.1c0,0.5,0.2,1,0.7,1.3
		c0.4,0.3,1.1,0.6,1.9,0.8l2.3,0.7l0.8,0.2l2.4,0.6l4,1l8,2.3c4.2,1.2,7.7,2.6,10.5,4.1c2.2,1.1,4.1,2.5,5.8,4
		c1.7,1.6,3.1,3.3,4.2,5.3c1.2,2,2,4,2.6,6c0.6,2.1,0.8,4.2,0.8,6.5c0,6.5-2.3,12.4-6.8,17.9c-6.9,8.5-17.2,12.7-30.7,12.7
		c-1,0-2.8-0.1-5.2-0.2C788.8,101.6,781.7,99.9,777.1,97.1z"/>
	<path class="st9" d="M98.3,113.1c-1.5-2.5-3.7-4.4-6.3-5.7c-2.3-1-4.5-1.6-6.8-1.6c-3.1,0-5.9,0.9-8.4,2.7
		c-2.5,1.8-4.4,4.2-5.5,7.2l-15.4,43.5l-15.4-43.5c-1.1-3.1-3-5.5-5.5-7.2c-2.5-1.7-5.4-2.6-8.5-2.6c-2.5,0-4.8,0.5-6.8,1.4
		c-2.7,1.3-4.8,3.3-6.4,5.8c-1.6,2.5-2.3,5.1-2.3,7.9c0,1.9,0.4,3.8,1.2,5.7l6.8,15.6c-0.8,0.9-1.3,2.1-1.3,3.3v150.3
		c0,2.8,2.2,5,5,5c2.7,0,5-2.3,5-5V162.1l13.8,31.6v47.4c0,1.4,2.2,2.5,5,2.5c2.7,0,5-1.1,5-2.5V204c1.3,0.4,2.6,0.6,4.1,0.6
		c1.6,0,3.4-0.3,5.4-0.8c3.9-1.2,7-4.4,9.3-9.8l29.4-67.3c0.8-1.8,1.2-3.7,1.2-5.7C100.6,118.2,99.9,115.5,98.3,113.1z"/>
	<path class="st9" d="M98.3,203.3c-2.9-1.3-5.2-3.1-6.8-5.4c-1.6-2.3-2.4-5-2.4-8c0-2.2,0.6-5,1.7-8.2l22.5-58.8
		c2.1-5.4,5.1-9.5,9.1-12.5c4-2.9,8.5-4.4,13.7-4.4c5.2,0,9.7,1.5,13.7,4.4c4,2.9,7,7.1,9.1,12.5l22.5,58.8c1.2,3.4,1.7,6.1,1.7,8.2
		c0,3-0.8,5.7-2.4,8c-1.6,2.3-3.9,4.1-6.8,5.4c-2,0.9-4.1,1.4-6.3,1.4c-3,0-5.8-1-8.4-2.9c-2.6-1.9-4.5-4.6-5.7-8.1l-1.5-4.4h-31.8
		l-1.6,4.4c-1.1,3.4-3,6-5.6,8c-2.6,2-5.4,3-8.5,3C102.5,204.6,100.4,204.2,98.3,203.3z M129.1,162.6h14.1l-7.1-25.7L129.1,162.6z"
		/>
	<path class="st9" d="M189.5,199.5c-3.1-3.7-4.6-7.8-4.6-12.2v-65.8c0-3.3,0.9-6.2,2.6-8.9c1.7-2.6,4-4.5,6.9-5.7
		c1.8-0.8,3.7-1.2,5.5-1.2c4.6,0,8.9,2.4,13,7.2l33.3,39.9v-31.4c0-4.3,1.5-7.9,4.5-11c3-3,6.5-4.5,10.6-4.5c2,0,4,0.4,5.8,1.1
		s3.4,1.9,4.8,3.3c1.4,1.3,2.4,3,3.3,4.9c0.8,2,1.2,4,1.2,6v67.5c0,0.6-0.1,1.7-0.3,3c-0.4,2.4-1.4,4.5-2.8,6.4
		c-1.5,1.9-3.2,3.3-5.3,4.4c-2.1,1-4.3,1.6-6.8,1.6c-2.9,0-5.5-0.7-7.9-2.2c-1.7-1.2-3-2.3-3.8-3.4L215.1,156v32.7
		c0,4.4-1.5,8.1-4.4,11.1c-2.9,2.9-6.3,4.3-10.4,4.3C196,204.2,192.3,202.6,189.5,199.5z"/>
	<path class="st9" d="M279.1,120c0.1-2.5,0.7-4.7,1.9-6.7c1.1-2,2.7-3.6,4.7-4.7c2-1.1,4.1-1.7,6.4-1.7h51.2c2.4,0,4.6,0.6,6.6,1.8
		c2,1.2,3.5,2.9,4.7,5c1.1,2.1,1.7,4.4,1.7,6.8c-0.1,3.7-1.5,6.8-4,9.3c-2.6,2.5-5.5,3.8-9,3.8h-11v55.5c0,2.8-0.7,5.3-2,7.6
		c-1.3,2.3-3.1,4.1-5.4,5.4c-2.2,1.4-4.7,2-7.5,2c-2.8,0-5.4-0.7-7.6-2c-2.3-1.4-4.1-3.2-5.4-5.6c-1.3-2.4-2-4.9-2-7.7v-55.5h-10.4
		c-3.5,0-6.6-1.3-9.1-3.9C280.3,126.8,279.1,123.7,279.1,120z"/>
	<path class="st9" d="M362.3,203.3c-2.9-1.3-5.2-3.1-6.8-5.4c-1.6-2.3-2.4-5-2.4-8c0-2.2,0.6-5,1.7-8.2l22.5-58.8
		c2.1-5.4,5.1-9.5,9.1-12.5c4-2.9,8.5-4.4,13.7-4.4c5.2,0,9.7,1.5,13.7,4.4c4,2.9,7,7.1,9.1,12.5l22.5,58.8c1.1,3.4,1.7,6.1,1.7,8.2
		c0,3-0.8,5.7-2.4,8c-1.6,2.3-3.9,4.1-6.8,5.4c-2,0.9-4.1,1.4-6.3,1.4c-3,0-5.8-1-8.4-2.9c-2.6-1.9-4.5-4.6-5.7-8.1l-1.5-4.4h-31.8
		l-1.6,4.4c-1.2,3.4-3,6-5.6,8c-2.6,2-5.4,3-8.5,3C366.4,204.6,364.4,204.2,362.3,203.3z M393.1,162.6h14.1l-7.1-25.7L393.1,162.6z"
		/>
	<path class="st9" d="M527.7,144.5h-25.4c-2.4,0-4.6,0.6-6.6,1.8c-2,1.2-3.6,2.8-4.8,4.8c-1.1,2-1.8,4.3-1.9,6.8
		c0,3.8,1.3,7,3.9,9.6c2.6,2.7,5.7,4,9.5,4h7.9c-1.9,2.6-5.1,4.4-9.6,5.2c-2.2,0.6-4.5,0.8-6.8,0.8c-3.8,0-7.2-0.7-10.2-2.2
		c-3-1.5-5.5-3.6-7.5-6.3c-2-2.7-3.3-6-4.1-9.9c-0.3-1.4-0.4-2.9-0.4-4.4c0-1.2,0.1-2.3,0.4-3.6c0.6-3.8,1.9-7.1,3.9-10
		c2-2.9,4.4-5.1,7.4-6.6c2.9-1.5,6.3-2.2,10-2.2c4.6,0,9.6,1.2,14.9,3.8c0.6,0.3,1.6,0.7,2.8,1.4l5.5,2.9h0.1c2.6,1.1,5,1.6,7.2,1.6
		c3.1,0,5.7-1,7.9-2.9c3.1-2.7,4.6-5.8,4.6-9.1c0-5.6-3.7-11-11.2-15.9c-3.7-2.2-7.6-4.1-11.8-5.4c-4.3-1.4-8.8-2.3-13.4-2.7
		c-2.6-0.2-4.5-0.3-5.9-0.3c-10.6,0-20,2.6-28.3,7.8c-7.6,4.8-13.5,10.9-17.6,18.3c-4.2,7.4-6.2,15.2-6.2,23.5
		c0,6.3,1.3,12.5,3.8,18.6c2.2,5.2,5.1,9.8,8.7,13.8c3.6,4.1,7.9,7.4,12.7,9.9c4.8,2.6,10.2,4.4,16.2,5.4c1.2,0.2,2.3,0.3,3.5,0.5
		v52.4c0,1.3,2.2,2.4,5,2.4c2.7,0,5-1.1,5-2.4v-51.9c5.7-0.1,10.9-1,15.7-2.6c0.4-0.1,0.7-0.3,1-0.4v101.6c0,2.2,2.2,4,5,4
		c2.7,0,5-1.8,5-4V196.1c1-0.7,2-1.4,2.9-2.2c4-3.4,7.3-7.4,9.9-12.1c2.4-4.3,3.8-8.4,4.4-12.4c0.6-3.2,0.9-6.3,0.9-9.3
		C541.7,149.7,537.1,144.5,527.7,144.5z"/>
	<path class="st9" d="M549.3,193.2c-0.8-1.9-1.2-3.8-1.2-5.8v-65c0-2.9,0.7-5.5,2-7.9c1.3-2.4,3.1-4.2,5.4-5.6c2.3-1.4,4.9-2,7.8-2
		h36c2.2,0,4.3,0.6,6.2,1.8c2,1.2,3.6,2.8,4.7,4.8c1.2,2,1.8,4.3,1.8,6.8c0,2.5-0.6,4.7-1.8,6.8c-1.2,2.1-2.7,3.7-4.7,4.9
		c-2,1.2-4.1,1.8-6.5,1.8h-20.7v8.1h17.1c1.8,0,3.7,0.4,5.4,1.1c1.8,0.8,3.3,1.8,4.6,3.1c1.3,1.1,2.3,2.5,2.9,4c0.7,1.6,1,3.2,1,4.9
		c0,3.5-1.4,6.6-4.1,9.2c-2.9,2.5-6.2,3.8-9.8,3.8h-17.2v8.3h19.7c3.9,0,7.3,1.4,10.2,4.1c1.4,1.2,2.4,2.6,3.1,4.2
		c0.7,1.7,1,3.4,1,5.1c0,3.7-1.3,6.8-4,9.3c-2.9,2.6-6.2,3.9-9.9,3.9h-35.2c-2.8,0-5.5-0.9-8-2.7
		C552.7,198.7,550.7,196.3,549.3,193.2z"/>
	<path class="st9" d="M622.3,199.5c-3.1-3.7-4.6-7.8-4.6-12.2v-65.8c0-3.3,0.9-6.2,2.6-8.9c1.7-2.6,4-4.5,6.9-5.7
		c1.8-0.8,3.7-1.2,5.5-1.2c4.6,0,8.9,2.4,13,7.2l33.3,39.9v-31.4c0-4.3,1.5-7.9,4.5-11c3-3,6.5-4.5,10.6-4.5c2,0,4,0.4,5.8,1.1
		s3.4,1.9,4.8,3.3c1.4,1.3,2.4,3,3.3,4.9c0.8,2,1.2,4,1.2,6v67.5c0,0.6-0.1,1.7-0.3,3c-0.4,2.4-1.4,4.5-2.8,6.4
		c-1.5,1.9-3.2,3.3-5.3,4.4c-2.1,1-4.3,1.6-6.8,1.6c-2.9,0-5.5-0.7-7.9-2.2c-1.7-1.2-3-2.3-3.8-3.4L647.9,156v32.7
		c0,4.4-1.5,8.1-4.4,11.1c-2.9,2.9-6.3,4.3-10.4,4.3C628.7,204.2,625.1,202.6,622.3,199.5z"/>
	<path class="st9" d="M723.3,198.6c-3.3-2.1-5.6-4.1-6.8-6.1c-1.2-2-1.8-4.6-1.8-7.8c0.1-2.9,0.9-5.3,2.2-7.4
		c2.5-3.7,5.6-5.6,9.3-5.6c1.5,0,3.1,0.2,4.6,0.5l5.8,1.6l5.2,1.4l3.8,0.9l1.4,0.4c0.9,0.1,1.7,0.3,2.2,0.4c1.7,0.3,3.3,0.5,4.6,0.5
		c1.4,0,2.6-0.2,3.7-0.6c1.5-0.5,2.6-0.9,3.1-1.4c0.8-0.6,1.2-1.4,1.2-2.3c0-0.9-0.4-1.7-1.3-2.3c-0.2-0.1-0.5-0.2-1-0.4l-2.5-0.9
		l-1.7-0.5l-7-1.7l-1.3-0.3l-8.6-2.5c-4.7-1.3-8.7-3-12-5c-3.5-2.3-6.3-5.3-8.2-9c-1.9-3.7-2.9-7.7-2.9-12c0-3.5,0.6-7,1.9-10.4
		c1.3-3.4,3.2-6.6,5.8-9.4c2.9-3.2,6.5-5.9,10.9-8c4.4-2.2,9.5-3.6,15.1-4.3c2.2-0.3,4.5-0.4,6.8-0.4c4.9,0,9.5,0.7,14,1.9
		c4.9,1.5,8.6,3.2,11,5.1s4,4.2,4.8,7c0.4,1.7,0.6,3.3,0.6,4.7c0,2.8-0.7,5.1-2.1,7.1c-1.3,1.9-2.7,3.3-4.4,4.2
		c-1.6,0.9-3.6,1.4-5.9,1.4c-2.4,0-5.1-0.4-8.1-1.3l-1-0.4l-3.8-1.2l-1.6-0.4l-3.7-0.9l-1.9-0.5l-1.3-0.3c-0.3,0-0.5-0.1-0.7-0.1
		c-0.2,0-0.6,0-1,0c-2.4,0-4.1,0.4-5,1.1c-0.8,0.7-1.1,1.4-1.1,2.3c0,0.6,0.3,1,0.8,1.4c0.5,0.3,1.2,0.6,2.1,0.9l2.5,0.7l0.9,0.3
		l2.6,0.6l4.3,1l8.6,2.5c4.5,1.3,8.3,2.8,11.4,4.4c2.3,1.2,4.4,2.7,6.2,4.4c1.8,1.7,3.3,3.6,4.6,5.7c1.3,2.1,2.2,4.3,2.8,6.5
		c0.6,2.2,0.9,4.6,0.9,7.1c0,7-2.5,13.5-7.4,19.3c-7.5,9.2-18.6,13.8-33.3,13.8c-1.1,0-3-0.1-5.6-0.3
		C735.9,203.5,728.3,201.6,723.3,198.6z"/>
	<path class="st9" d="M845.4,156c-0.1,0-0.4,0.1-0.9,0.3c-0.5,0.2-0.9,0.3-1.1,0.4v-0.9l-14.5,14.8c-0.5,0.2-1.3,0.3-2.5,0.3
		c-3.2,0-6-1.4-8.4-4.2c-2.4-2.8-3.6-6.5-3.6-11.2l0.1-2c0.2-3,0.8-5.5,1.8-7.5c1-2,2.4-3.7,4.3-5c1.9-1.3,4.3-2.2,7.3-2.7h0.3
		l2.3-0.5c0.3-0.1,0.6-0.1,0.7-0.2c0.1,0,0.3-0.1,0.5-0.1c1.6-0.5,2.4-1.5,2.4-2.9c0-0.9-0.3-1.7-1-2.5c-0.9-1.2-3.1-1.8-6.7-1.8
		c-1.5,0.1-3.7,0.8-6.4,2.1c-0.2,0.1-0.6,0.4-1.3,0.8l-0.8,0.4l-2.9,1.9c-0.3,0.3-1.5,0.9-3.6,1.9c-1.8,1-3.8,1.5-5.9,1.5
		c-1.5,0-2.9-0.3-4.2-0.8c-2-0.8-3.6-2.3-4.9-4.3c-1.2-2-1.9-4.3-1.9-6.8c0-3.1,0.9-6.1,2.7-8.7c2.5-3.8,7.1-7.3,13.8-10.3
		c5.3-2.2,10.9-3.3,16.6-3.4c1.4,0,3.5,0.2,6.3,0.5c8.2,1.3,14.6,3.7,19.1,7.2c4.6,3.6,7.6,8.3,9,14.2c0.6,2.8,0.9,5.1,0.9,6.9
		c0,3.4-0.7,6.6-2,9.6c-1.4,3-3.4,5.6-6,7.8C852.6,152.8,849.3,154.6,845.4,156z M828.7,205.5c-4.4,0-8.2-1.6-11.3-4.8
		c-3.1-3.2-4.7-7-4.7-11.5c0-2.2,0.4-4.3,1.2-6.3c0.8-1.9,2-3.7,3.5-5.3c1.6-1.6,3.3-2.8,5.2-3.6c1.9-0.8,3.9-1.2,6.1-1.2
		c4.4,0,8.2,1.6,11.4,4.8c1.5,1.5,2.7,3.2,3.5,5.2s1.3,4.1,1.3,6.3c0,4.5-1.6,8.4-4.9,11.6C836.9,204,833.2,205.5,828.7,205.5z"/>
</g>
</svg>
